# xmcd CD database file
#
# Track frame offsets:
#	150
#	23766
#	40903
#	67197
#	95297
#	117528
#	154051
#	181843
#	203451
#	227484
#	247073
#	268871
#
# Disc length: 3922 seconds
#
# Revision: 0
# Processed by: cddbd v1.5.1PL0 Copyright (c) Steve Scherf et al.
# Submitted via: CDex 1.50
#
DISCID=9f0f500c
DTITLE=John Sheridan Trio - Artistry 3
DYEAR=2002
DGENRE=Jazz
TTITLE0=It's Been So Long
TTITLE1=I'm Glad There Is You
TTITLE2=Soon
TTITLE3=Wonder Why
TTITLE4=Ev'rything I Love
TTITLE5=Change Partners
TTITLE6=The Folks Who Live on the Hill
TTITLE7=I'll Always Be in Love With You
TTITLE8=Poor Butterfly
TTITLE9=I Never Knew
TTITLE10=No Love, No Nothin'
TTITLE11=Let's Get Away From It All
EXTD=YEAR: 2002
EXTT0=
EXTT1=
EXTT2=
EXTT3=
EXTT4=
EXTT5=
EXTT6=
EXTT7=
EXTT8=
EXTT9=
EXTT10=
EXTT11=
PLAYORDER=
